<svg
    version="1.2"
    xmlns="http://www.w3.org/2000/svg"
    preserveAspectRatio="none"
    width="16px" height="16px">
    <rect x="2"  y="0" width="2" height="2" />
    <rect x="6"  y="0" width="2" height="2" />
    <rect x="10" y="0" width="2" height="2" />
    <rect x="14" y="0" width="2" height="2" />

    <rect x="0"  y="2"  width="2" height="2" />
    <rect x="4"  y="2"  width="2" height="2" />
    <rect x="8"  y="2"  width="2" height="2" />
    <rect x="12" y="2"  width="2" height="2" />

    <rect x="2"  y="4"  width="2" height="2" />
    <rect x="6"  y="4"  width="2" height="2" />
    <rect x="10" y="4"  width="2" height="2" />
    <rect x="14" y="4"  width="2" height="2" />

    <rect x="0"  y="6"  width="2" height="2" />
    <rect x="4"  y="6"  width="2" height="2" />
    <rect x="8"  y="6"  width="2" height="2" />
    <rect x="12" y="6"  width="2" height="2" />

    <rect x="2"  y="8"  width="2" height="2" />
    <rect x="6"  y="8"  width="2" height="2" />
    <rect x="10" y="8"  width="2" height="2" />
    <rect x="14" y="8"  width="2" height="2" />

    <rect x="0"  y="10" width="2" height="2" />
    <rect x="4"  y="10" width="2" height="2" />
    <rect x="8"  y="10" width="2" height="2" />
    <rect x="12" y="10" width="2" height="2" />

    <rect x="2"  y="12" width="2" height="2" />
    <rect x="6"  y="12" width="2" height="2" />
    <rect x="10" y="12" width="2" height="2" />
    <rect x="14" y="12" width="2" height="2" />

    <rect x="0"  y="14" width="2" height="2" />
    <rect x="4"  y="14" width="2" height="2" />
    <rect x="8"  y="14" width="2" height="2" />
    <rect x="12" y="14" width="2" height="2" />

</svg>
